<svg xmlns="http://www.w3.org/2000/svg" aria-hidden="true" role="img" class="iconify iconify--twemoji" width="31.88" height="32" preserveAspectRatio="xMidYMid meet" viewBox="0 0 24 24"><path fill="none" d="M0 0h24v24H0z"/><path d="M10.39 2.63c-.09-.14-.23-.23-.39-.23s-.3.09-.39.23l-6 9.56c-.09.14-.11.32-.06.48.04.16.13.31.27.41L9 16.15l-.72 1.67c-.05.1-.07.21-.05.32s.07.21.16.3c.09.09.2.14.32.14.09 0 .18-.02.26-.07.1-.06.18-.16.23-.27l.72-1.67 1.6 1.5-2.29 2.29c-.12.12-.18.29-.18.46s.06.34.18.46c.12.12.29.18.46.18.09 0 .18-.02.26-.07.1-.06.18-.16.23-.27L12 13.15l.72 1.67c.05.1.13.2.23.27.08.05.17.07.26.07.17 0 .34-.06.46-.18.12-.12.18-.29.18-.46s-.06-.34-.18-.46l-2.29-2.29 1.6-1.5.72 1.67c.05.1.13.2.23.27.08.05.17.07.26.07.17 0 .34-.06.46-.18.12-.12.18-.29.18-.46s-.06-.34-.18-.46l-2.29-2.29 1.6-1.5 1.67.72c.1.05.2.07.3.07.12 0 .22-.04.32-.11.1-.07.18-.17.23-.3.05-.1.03-.22-.05-.32l-.72-1.67 2.29-2.29c.12-.12.18-.29.18-.46s-.06-.34-.18-.46l-2.29-2.29 1.6-1.5 1.67.72c.1.05.22.07.32.07.12 0 .22-.04.32-.11.1-.07.18-.17.23-.3.05-.1.03-.22-.05-.32l-.72-1.67 2.29-2.29c.12-.12.18-.29.18-.46s-.06-.34-.18-.46L10.39 2.63zM2 12c0-.33.04-.65.1-.97l2.66 2.66-1.49 1.49-2.27-2.27c-.1-.1-.2-.22-.28-.35-.07-.13-.1-.27-.1-.43zm6.5-1.73L7.84 9.39l.85-2.04 2.04.85-1.21 2.88zM18.15 14.99l2.66-2.66c.06.32.1.64.1.97 0 .16-.03.3-.1.43-.07.13-.17.25-.28.35l-2.27 2.27-1.49-1.49 2.66-2.66zM15.9 9.39l-.85-2.04 2.04-.85.85 2.04-2.04.85zM12 4.97l-1.2 2.88-2.04-.85.85-2.04L12 4.97zm-2.28 7.17c-.09-.14-.24-.23-.39-.23s-.3.09-.39.23l-3 4.65c-.09.14-.11.32-.06.48.04.16.13.31.27.41L10 18.15l-.72 1.67c-.05.1-.07.21-.05.32s.07.21.16.3c.09.09.2.14.32.14.09 0 .18-.02.26-.07.1-.06.18-.16.23-.27l.72-1.67 1.6 1.5-2.29 2.29c-.12.12-.18.29-.18.46s.06.34.18.46c.12.12.29.18.46.18.09 0 .18-.02.26-.07.1-.06.18-.16.23-.27L12 13.15l.72 1.67c.05.1.13.2.23.27.08.05.17.07.26.07.17 0 .34-.06.46-.18.12-.12.18-.29.18-.46s-.06-.34-.18-.46l-2.29-2.29 1.6-1.5.72 1.67c.05.1.13.2.23.27.08.05.17.07.26.07.17 0 .34-.06.46-.18.12-.12.18-.29.18-.46s-.06-.34-.18-.46l-2.29-2.29 1.6-1.5 1.67.72c.1.05.2.07.3.07.12 0 .22-.04.32-.11.1-.07.18-.17.23-.3.05-.1.03-.22-.05-.32l-.72-1.67 2.29-2.29c.12-.12.18-.29.18-.46s-.06-.34-.18-.46L12.39 2.63z"/></svg>
