<svg xmlns="http://www.w3.org/2000/svg" viewBox="0 0 128 128" width="100" height="100">
  <path fill="#f7df1e" d="M0 0h128v128H0z"/>
  <path fill="#000" d="M12.5 6.7l16.6 90.6c.5 2.6 2.5 4.6 5.2 4.6h.1c3.3 0 4.6-2.1 4.6-2.1l.3-1.2c1.6 1.8 4.2 2.9 7 2.9 4.9 0 8.9-3.8 8.9-8.9 0-5.3-4.4-9.7-9.7-9.7-2.8 0-5.2 1.1-7.1 2.8l-1.5-8.3h9.4l1.7-9.2H48l-1.8 9.2h8.1l-1.5 8.6c-2.6-1.8-5.6-2.8-8.7-2.8-5.3 0-9.7 4.4-9.7 9.7 0 5.7 4.6 10.3 10.2 10.3 4.6 0 7.9-2.1 9.4-5.7l.3 1.6c.3 1.7 1.9 3.1 3.6 3.1h.1c2.5 0 4.7-2.1 4.7-4.7l-16.6-90.6C12.6 8.9 10.7 6.9 8 6.9H7.9C4.6 6.9 2.8 9 2.8 11.6c0 2.6 1.6 4.9 4 5.8L12.5 6.7z"/>
</svg>
